<svg version="1.0" xmlns="http://www.w3.org/2000/svg" width="373.333" height="373.333" viewBox="0 0 280 280"><path d="M115 1.5C84.9 7 58.1 21.5 36.9 43.7 19.2 62.3 8.4 81.9 2.5 106.3.2 115.6 0 118.4 0 139.5c0 12.6.5 25.8 1 29.2 2.3 14 11.9 36.1 22.2 51 13.7 19.8 37.9 39.7 59.3 48.6 9.8 4.1 24.9 8.6 34.1 10.2 11.3 2 36.4 2 47.6 0 21.6-3.7 47.1-15.3 64.3-29.1 2.2-1.7 6.8-4.5 10.1-6.2 7-3.5 10.3-7 14.6-15.6 1.7-3.4 5.7-10.7 9-16.4 7-12.2 12-23.6 15-34.1 1.9-6.7 2.2-10.7 2.6-34.5.3-22.5.1-28.1-1.3-34.5-3.3-14.8-12.2-34.9-21.3-47.6-6.4-9.1-24.5-27.2-34.7-34.8C208 14.9 185 5.4 164.1 1.5c-10.4-1.9-38.5-1.9-49.1 0zm-5.7 40.6c1 3 1.9 7.2 2 9.4.2 3.4-.1 4-1.8 4-4.3 0-8.6-15-5.3-18.3 2-2 3.2-.9 5.1 4.9zm63.4-2.5c.4 1.2-.9 3.2-4.4 6.5-5.5 5.2-9.4 6.9-11.8 4.9-2-1.7-.6-3.9 5.6-8.9 5.4-4.3 9.5-5.2 10.6-2.5zm32.2 11.2c1.1 2.1-.4 11.8-2.5 14.9-1.7 2.6-5.2 3-6.1.7-.6-1.5 1.1-10.7 2.8-15.2 1-2.6 4.4-2.9 5.8-.4zm-131.6 15c.9 1 2.3 4.7 3.1 8.2 1.4 5.7 1.4 6.7 0 8-1.1 1.1-1.9 1.2-3.2.4-2-1.2-6.7-14.8-5.8-16.9.7-2 4-1.9 5.9.3zm78.8 15.8c.9 1.1 1 2 .2 3.2-.8 1.4-2.7 1.7-9.9 1.7-7.7 0-8.9-.3-9.2-1.8-.7-3.6 1.6-4.7 9.8-4.7 5.9 0 8.1.4 9.1 1.6zm102.4 3.9c0 4.2-15.6 8.5-18.4 5.2-2.8-3.5-1-5.1 6.9-6.3 9.9-1.5 11.5-1.4 11.5 1.1zm-53.2 10.7c5.5 7.5 6.9 10.6 5.7 12.8-.6 1.1-1.9 2-2.9 2-2.6 0-9.1-9.7-9.1-13.6 0-5.5 2.7-6 6.3-1.2zm-156 8.9c1.2 2.4 1.7 5.2 1.5 9.4-.3 5.7-.4 6-2.8 6-2.2 0-2.6-.5-3.2-4.5-2-13.8.2-19.3 4.5-10.9zm49-1c1.5 2.3-5.7 17.2-8 16.7-3.9-.7-2.4-11.2 2.2-16.2 2.7-2.9 4.2-3 5.8-.5zm59.9 6.7c13.7 6 20.7 21.7 16.4 36.5-2.3 8-6.9 13.6-14.1 17.2-5.3 2.7-7 3-15 3-9.9 0-14-1.5-21-7.7-10.7-9.3-12.3-27.5-3.5-39.6 7.8-10.8 24.6-15 37.2-9.4zm84 16.7c1.3 2.8-.8 9.4-4.4 14-1.9 2.4-2.2 2.5-3.6 1.1-1.3-1.3-1.4-2.4-.4-7.7 1.7-9 5.9-12.8 8.4-7.4zM42.6 154.4c1.3 3.3-7.3 14.6-11.1 14.6-4.7 0-4.6-2.2.6-9.3 3.8-5.2 5.5-6.7 7.4-6.7 1.4 0 2.8.6 3.1 1.4zm36.2 4.9c-.4 2.9-14.4 10.5-16.7 9-3.4-2.1-1.8-4.6 5.8-9 5.9-3.3 7.9-4 9.3-3.2 1.2.6 1.8 1.9 1.6 3.2zm126.9 7.2c4.5 5.3 7.4 10.5 6.7 11.7-1.4 2.2-5.4.6-9.4-4-5.5-6.1-6.7-8.7-5-10.7 2-2.4 3.7-1.8 7.7 3zM266 171c0 2.6-6.4 7.8-10.6 8.6-2.7.5-4 .2-5.2-1-1.6-1.6-1.5-1.9 1.8-4.7 5.2-4.4 11.1-7.1 12.7-5.7.7.6 1.3 1.8 1.3 2.8zm-158 5.5c.9 1.1 1.1 3.9.8 9.1-.6 8.2-1.8 10.6-4.6 8.7-1.4-.9-1.7-2.5-1.6-8.6.1-4.2.4-8.3.7-9.1.8-2 3.1-2 4.7-.1zm79.7 19.8c1 3 1 4.9 0 9.5-1.1 5.1-1.5 5.7-3.7 5.7-2.5 0-2.5-.1-2.6-9 0-5 .2-9.4.4-9.8.2-.5 1.4-.7 2.5-.5 1.5.2 2.6 1.5 3.4 4.1zm-34.7 2.2c1.6 1.9-.2 4.2-7.1 8.6-5.8 3.7-10.4 3.7-10.4.1 0-1.7 1.6-3.2 6.5-6.2 7.1-4.3 9.1-4.8 11-2.5zm-76.9 10.1c2.4 2.9-.1 4.9-6.9 5.2-6.4.3-12.2-1.7-12.2-4.2 0-2.3 1.2-2.6 9.5-2.6 6.3 0 8.6.4 9.6 1.6zm166.4 1.8c0 2.5-.5 3-4.5 4.2-6.2 1.9-11.9 1.8-12.7-.2-.8-2.2 1-3.7 7-5.6 7.6-2.4 10.2-2 10.2 1.6zm-136.7 22.9c2.8 1.6 9.2 10.4 9.2 12.8 0 .9-.7 2.2-1.5 2.9-1.4 1.1-2.3.5-6.6-4-4.9-5.3-6.6-8.7-5.5-11.5.7-1.8 1.4-1.8 4.4-.2zm64.3 11.2c5.9 3 7 4 6.7 5.8-.3 1.9-.9 2.2-4.2 2-4.1-.3-11.3-3.8-12.9-6.4-1.3-2.1-.2-4.9 1.8-4.9.8 0 4.7 1.6 8.6 3.5z"/></svg>