<svg fill="#f3848c" stroke="#f3848c" xmlns="http://www.w3.org/2000/svg" viewBox="0 0 122.88 120.64" style="enable-background:new 0 0 122.88 120.64" xml:space="preserve">
  <path d="M108.91 66.6a8.288 8.288 0 0 0 5.85 2.28c2.11-.03 4.2-.84 5.79-2.44l.12-.12c1.5-1.58 2.23-3.6 2.2-5.61a7.965 7.965 0 0 0-2.37-5.55C102.85 37.5 84.9 20.03 67.11 2.48c-.05-.07-.1-.13-.16-.19A8.301 8.301 0 0 0 61.08 0c-2.11.03-4.21.85-5.8 2.45l-.26.27C37.47 20.21 19.87 37.65 2.36 55.17A7.974 7.974 0 0 0 0 60.71c-.03 2.01.7 4.03 2.21 5.61l.15.15a8.318 8.318 0 0 0 5.76 2.41c2.1.03 4.22-.73 5.85-2.28l47.27-47.22 47.67 47.22zm-2 51.77a8.265 8.265 0 0 0 5.83 2.26c2.11-.03 4.2-.84 5.79-2.44l.12-.12c1.5-1.57 2.23-3.6 2.21-5.61a7.947 7.947 0 0 0-2.37-5.55C101.2 89.63 84.2 71.76 67.12 54.24c-.05-.07-.11-.14-.17-.21a8.335 8.335 0 0 0-5.87-2.28c-2.11.03-4.21.85-5.8 2.45-16.95 17.5-33.84 35.07-50.77 52.6l-.13.12a7.945 7.945 0 0 0-2.35 5.54c-.03 2.01.7 4.03 2.21 5.61l.15.15a8.318 8.318 0 0 0 5.76 2.41c2.1.03 4.22-.73 5.85-2.28l45.24-47.18 45.67 47.2z"/>
</svg>
