<?xml version="1.0" standalone="no"?>
<!DOCTYPE svg PUBLIC "-//W3C//DTD SVG 20010904//EN"
 "http://www.w3.org/TR/2001/REC-SVG-20010904/DTD/svg10.dtd">
<svg version="1.0" xmlns="http://www.w3.org/2000/svg"
 width="280.000000pt" height="280.000000pt" viewBox="0 0 280.000000 280.000000"
 preserveAspectRatio="xMidYMid meet">
<metadata>
Created by potrace 1.14, written by Peter Selinger 2001-2017
</metadata>
<g transform="translate(0.000000,280.000000) scale(0.100000,-0.100000)"
fill="#000000" stroke="none">
<path d="M1150 2785 c-301 -55 -569 -200 -781 -422 -177 -186 -285 -382 -344
-626 -23 -93 -25 -121 -25 -332 0 -126 5 -258 10 -292 23 -140 119 -361 222
-510 137 -198 379 -397 593 -486 98 -41 249 -86 341 -102 113 -20 364 -20 476
0 216 37 471 153 643 291 22 17 68 45 101 62 70 35 103 70 146 156 17 34 57
107 90 164 70 122 120 236 150 341 19 67 22 107 26 345 3 225 1 281 -13 345
-33 148 -122 349 -213 476 -64 91 -245 272 -347 348 -145 108 -375 203 -584
242 -104 19 -385 19 -491 0z m-57 -406 c10 -30 19 -72 20 -94 2 -34 -1 -40
-18 -40 -43 0 -86 150 -53 183 20 20 32 9 51 -49z m634 25 c4 -12 -9 -32 -44
-65 -55 -52 -94 -69 -118 -49 -20 17 -6 39 56 89 54 43 95 52 106 25z m322
-112 c11 -21 -4 -118 -25 -149 -17 -26 -52 -30 -61 -7 -6 15 11 107 28 152 10
26 44 29 58 4z m-1316 -150 c9 -10 23 -47 31 -82 14 -57 14 -67 0 -80 -11 -11
-19 -12 -32 -4 -20 12 -67 148 -58 169 7 20 40 19 59 -3z m788 -158 c9 -11 10
-20 2 -32 -8 -14 -27 -17 -99 -17 -77 0 -89 3 -92 18 -7 36 16 47 98 47 59 0
81 -4 91 -16z m1024 -39 c0 -42 -156 -85 -184 -52 -28 35 -10 51 69 63 99 15
115 14 115 -11z m-532 -107 c55 -75 69 -106 57 -128 -6 -11 -19 -20 -29 -20
-26 0 -91 97 -91 136 0 55 27 60 63 12z m-1560 -89 c12 -24 17 -52 15 -94 -3
-57 -4 -60 -28 -60 -22 0 -26 5 -32 45 -20 138 2 193 45 109z m490 10 c15 -23
-57 -172 -80 -167 -39 7 -24 112 22 162 27 29 42 30 58 5z m599 -67 c137 -60
207 -217 164 -365 -23 -80 -69 -136 -141 -172 -53 -27 -70 -30 -150 -30 -99 0
-140 15 -210 77 -107 93 -123 275 -35 396 78 108 246 150 372 94z m840 -167
c13 -28 -8 -94 -44 -140 -19 -24 -22 -25 -36 -11 -13 13 -14 24 -4 77 17 90
59 128 84 74z m-1956 -269 c13 -33 -73 -146 -111 -146 -47 0 -46 22 6 93 38
52 55 67 74 67 14 0 28 -6 31 -14z m362 -49 c-4 -29 -144 -105 -167 -90 -34
21 -18 46 58 90 59 33 79 40 93 32 12 -6 18 -19 16 -32z m1269 -72 c45 -53 74
-105 67 -117 -14 -22 -54 -6 -94 40 -55 61 -67 87 -50 107 20 24 37 18 77 -30z
m603 -45 c0 -26 -64 -78 -106 -86 -27 -5 -40 -2 -52 10 -16 16 -15 19 18 47
52 44 111 71 127 57 7 -6 13 -18 13 -28z m-1580 -55 c9 -11 11 -39 8 -91 -6
-82 -18 -106 -46 -87 -14 9 -17 25 -16 86 1 42 4 83 7 91 8 20 31 20 47 1z
m797 -198 c10 -30 10 -49 0 -95 -11 -51 -15 -57 -37 -57 -25 0 -25 1 -26 90 0
50 2 94 4 98 2 5 14 7 25 5 15 -2 26 -15 34 -41z m-347 -22 c16 -19 -2 -42
-71 -86 -58 -37 -104 -37 -104 -1 0 17 16 32 65 62 71 43 91 48 110 25z m-769
-101 c24 -29 -1 -49 -69 -52 -64 -3 -122 17 -122 42 0 23 12 26 95 26 63 0 86
-4 96 -16z m1664 -18 c0 -25 -5 -30 -45 -42 -62 -19 -119 -18 -127 2 -8 22 10
37 70 56 76 24 102 20 102 -16z m-1367 -229 c28 -16 92 -104 92 -128 0 -9 -7
-22 -15 -29 -14 -11 -23 -5 -66 40 -49 53 -66 87 -55 115 7 18 14 18 44 2z
m643 -112 c59 -30 70 -40 67 -58 -3 -19 -9 -22 -42 -20 -41 3 -113 38 -129 64
-13 21 -2 49 18 49 8 0 47 -16 86 -35z"/>
</g>
</svg>
